<?xml version="1.0" standalone="no"?>
<!DOCTYPE svg PUBLIC "-//W3C//DTD SVG 20010904//EN"
 "http://www.w3.org/TR/2001/REC-SVG-20010904/DTD/svg10.dtd">
<svg version="1.0" xmlns="http://www.w3.org/2000/svg"
 width="192.000000pt" height="193.000000pt" viewBox="0 0 192.000000 193.000000"
 preserveAspectRatio="xMidYMid meet">
<metadata>
Created by potrace 1.16, written by Peter Selinger 2001-2019
</metadata>
<g transform="translate(0.000000,193.000000) scale(0.100000,-0.100000)"
fill="#000000" stroke="none">
<path d="M0 965 l0 -965 960 0 960 0 0 965 0 965 -960 0 -960 0 0 -965z m761
-72 c9 -23 13 -25 52 -19 23 3 49 2 57 -3 12 -8 12 -13 -4 -29 -44 -49 -123
-52 -166 -7 -16 17 -24 41 -28 76 l-5 51 42 -22 c24 -12 46 -32 52 -47z m509
37 c0 -34 -26 -85 -55 -108 -47 -37 -141 -23 -159 24 -7 19 33 35 55 21 22
-13 50 -2 56 23 5 20 64 59 91 60 6 0 12 -9 12 -20z"/>
</g>
</svg>
