<svg version="1.1" id="Layer_1" xmlns="http://www.w3.org/2000/svg" xmlns:xlink="http://www.w3.org/1999/xlink" x="0px" y="0px"
	 width="100%" viewBox="0 0 192 193" enable-background="new 0 0 192 193" xml:space="preserve">
<path fill="#000000" opacity="1.000000" stroke="none" 
	d="
M104.000000,194.000000 
	C69.333336,194.000000 35.166672,194.000000 1.000005,194.000000 
	C1.000003,129.666672 1.000003,65.333344 1.000002,1.000013 
	C64.999992,1.000009 128.999985,1.000009 192.999969,1.000004 
	C192.999985,65.333321 192.999985,129.666641 193.000000,193.999969 
	C163.500000,194.000000 134.000000,194.000000 104.000000,194.000000 
M35.298954,98.809639 
	C31.723129,106.288422 28.208830,113.797577 24.538847,121.229866 
	C23.215105,123.910652 22.030649,126.450432 24.592339,128.970184 
	C27.673441,132.000854 30.711445,135.094330 33.988537,137.903473 
	C48.438690,150.290237 65.535172,157.880447 82.660042,165.757477 
	C92.802513,170.422775 101.040909,170.742065 111.240326,166.022797 
	C130.160736,157.268356 149.176636,148.997437 164.761734,134.675842 
	C173.085434,127.026947 173.077759,127.021660 167.843674,116.680786 
	C167.543915,116.088585 167.311234,115.462006 167.055344,114.848083 
	C160.983978,100.281845 154.840591,85.745079 148.860672,71.141388 
	C140.322632,50.290436 127.306541,33.114590 108.329933,20.621971 
	C97.540367,13.519021 97.623505,13.393209 86.947205,20.730999 
	C85.713631,21.578829 84.459236,22.397535 83.244774,23.271805 
	C68.919174,33.584641 57.803387,46.593590 50.637619,62.773327 
	C45.454754,74.475815 40.594231,86.321068 35.298954,98.809639 
z"/>
<path fill="#2D221A" opacity="1.000000" stroke="none" 
	d="
M35.444454,98.456146 
	C40.594231,86.321068 45.454754,74.475815 50.637619,62.773327 
	C57.803387,46.593590 68.919174,33.584641 83.244774,23.271805 
	C84.459236,22.397535 85.713631,21.578829 86.947205,20.730999 
	C97.623505,13.393209 97.540367,13.519021 108.329933,20.621971 
	C127.306541,33.114590 140.322632,50.290436 148.860672,71.141388 
	C154.840591,85.745079 160.983978,100.281845 167.055344,114.848083 
	C167.311234,115.462006 167.543915,116.088585 167.843674,116.680786 
	C173.077759,127.021660 173.085434,127.026947 164.761734,134.675842 
	C149.176636,148.997437 130.160736,157.268356 111.240326,166.022797 
	C101.040909,170.742065 92.802513,170.422775 82.660042,165.757477 
	C65.535172,157.880447 48.438690,150.290237 33.988537,137.903473 
	C30.711445,135.094330 27.673441,132.000854 24.592339,128.970184 
	C22.030649,126.450432 23.215105,123.910652 24.538847,121.229866 
	C28.208830,113.797577 31.723129,106.288422 35.444454,98.456146 
M69.405060,46.281696 
	C68.594475,47.520344 67.783890,48.758995 66.386322,50.325531 
	C62.914242,56.499920 59.442158,62.674309 55.294853,69.108711 
	C54.809708,70.395157 54.324566,71.681595 53.285366,73.370071 
	C49.182659,83.908577 45.079956,94.447075 40.907024,105.624306 
	C40.855724,106.049332 40.804424,106.474365 40.119091,107.147438 
	C37.712345,112.033005 35.308193,116.919861 32.897846,121.803650 
	C31.528847,124.577499 32.002007,126.953667 34.416695,128.912872 
	C41.504669,134.663864 48.315781,140.811325 55.777420,146.028137 
	C61.209175,149.825760 67.500961,152.393280 74.220612,155.937088 
	C65.570610,144.504486 57.754734,134.174332 49.864277,123.745621 
	C51.042168,127.895370 52.228535,132.074982 53.414902,136.254593 
	C53.055252,136.494171 52.695606,136.733749 52.335957,136.973328 
	C49.652103,133.936829 46.864925,130.984375 44.309761,127.843193 
	C40.886253,123.634514 41.189137,119.073265 44.193451,114.917053 
	C47.495934,110.348343 50.613632,105.278671 54.956451,101.897346 
	C68.701530,91.195389 82.981148,81.179970 97.719505,71.099281 
	C103.743340,74.444878 109.767174,77.790482 115.876259,81.132401 
	C115.876259,81.132401 115.866455,81.217171 116.040520,81.866867 
	C127.614922,90.956955 138.517609,100.750534 148.026840,112.877876 
	C148.833542,114.519775 149.788895,116.107742 150.409149,117.817284 
	C151.175797,119.930321 152.635529,122.432243 152.093414,124.261650 
	C150.353668,130.132477 146.043701,134.186035 140.225296,138.281052 
	C141.396484,133.268997 142.313721,129.343719 143.210938,125.504051 
	C135.152313,135.696609 127.239822,145.704330 118.972298,156.161118 
	C135.968781,149.909073 149.990143,139.996429 161.747955,126.789955 
	C162.516068,125.927208 162.745377,123.863708 162.283340,122.749290 
	C160.061523,117.390442 157.516006,112.165794 155.032654,106.142609 
	C151.193771,96.035889 147.582703,85.834152 143.423004,75.861244 
	C141.238678,70.624268 138.093735,65.787949 135.274048,60.087799 
	C134.543182,58.679905 133.812302,57.272011 132.778671,55.261253 
	C128.618469,50.433090 124.458267,45.604927 120.084106,40.195896 
	C119.407738,39.436481 118.731377,38.677067 117.625961,37.430542 
	C115.744080,35.964851 113.862198,34.499161 111.521561,32.661728 
	C110.700783,32.142326 109.880013,31.622927 108.505432,30.695406 
	C104.634422,28.756474 100.763405,26.817541 96.179947,24.950880 
	C93.452927,26.605650 90.725899,28.260422 87.389885,30.155508 
	C86.511436,31.058607 85.632988,31.961706 84.087212,32.941250 
	C82.388771,34.229565 80.690338,35.517879 78.425041,37.113300 
	C77.553726,38.033192 76.682419,38.953079 75.186050,40.082397 
	C73.443832,42.032650 71.701622,43.982903 69.405060,46.281696 
M100.642181,112.527733 
	C97.703979,113.167664 94.287270,113.070297 91.927635,114.601707 
	C87.081985,117.746567 82.625374,121.569626 78.341591,125.478447 
	C74.367996,129.104233 72.654160,133.815781 73.276932,139.403824 
	C84.880241,135.858963 86.984283,136.787689 92.492729,147.703659 
	C93.948036,150.587616 95.314346,153.516464 96.783463,156.552719 
	C99.958290,151.154572 102.575172,145.980515 105.880287,141.291580 
	C109.111534,136.707443 113.060112,136.114883 118.155701,138.438980 
	C119.155968,138.895187 120.212517,139.228043 121.788185,139.823929 
	C122.184952,133.692551 120.555794,128.734421 116.428291,125.014694 
	C111.634850,120.694824 106.396278,116.868896 100.642181,112.527733 
M82.646774,106.969528 
	C81.007637,106.583817 78.973358,106.678764 77.806023,105.719139 
	C74.733040,103.192932 72.036934,100.208298 68.541695,96.767281 
	C66.882996,105.687729 69.630806,111.388748 75.443031,113.443901 
	C80.752792,115.321396 85.843658,112.943329 88.988228,106.572090 
	C86.859375,106.572090 85.068924,106.572090 82.646774,106.969528 
M117.840553,105.338196 
	C116.073784,106.097305 114.368118,107.183922 112.523911,107.528015 
	C110.474968,107.910301 108.299706,107.615532 105.393074,107.615532 
	C110.160019,113.975769 114.875092,115.685905 119.899849,113.688072 
	C125.173500,111.591270 128.160553,105.717613 127.239029,97.838768 
	C123.896721,100.304062 120.971161,102.461967 117.840553,105.338196 
M83.576141,144.984146 
	C85.079353,146.461441 86.582565,147.938736 88.085770,149.416031 
	C88.551170,148.903046 89.016579,148.390060 89.481979,147.877090 
	C87.176956,145.616501 84.871941,143.355927 82.566925,141.095352 
	C82.153038,141.493179 81.739143,141.891006 81.325256,142.288849 
	C81.919456,143.029495 82.513649,143.770142 83.576141,144.984146 
z"/>
<path fill="#3C3A38" opacity="1.000000" stroke="none" 
	d="
M55.970074,68.848694 
	C59.442158,62.674309 62.914242,56.499920 67.144424,50.151020 
	C80.770096,49.853687 78.831329,51.774868 79.005981,38.770393 
	C79.014771,38.115841 78.997200,37.460938 78.991905,36.806198 
	C80.690338,35.517879 82.388771,34.229565 84.493423,33.380344 
	C84.930046,43.118088 85.039619,52.417770 84.917557,61.714420 
	C84.895699,63.379417 84.396103,65.518188 83.294746,66.604408 
	C78.934761,70.904465 74.192574,74.813858 69.713562,78.998116 
	C68.227737,80.386154 67.107002,82.164993 65.819351,83.765160 
	C66.210632,84.134636 66.601906,84.504105 66.993187,84.873581 
	C67.953171,84.432487 69.086670,84.187599 69.844215,83.517609 
	C73.940979,79.894341 77.786240,75.970993 82.023117,72.526100 
	C86.646523,68.766937 88.468491,64.362907 88.140709,58.304447 
	C87.630089,48.866428 88.001343,39.380703 87.998878,29.915192 
	C90.725899,28.260422 93.452927,26.605650 96.569199,25.395184 
	C96.990311,40.859337 97.022179,55.879189 97.054047,70.899040 
	C82.981148,81.179970 68.701530,91.195389 54.956451,101.897346 
	C50.613632,105.278671 47.495934,110.348343 44.193451,114.917053 
	C41.189137,119.073265 40.886253,123.634514 44.309761,127.843193 
	C46.864925,130.984375 49.652103,133.936829 52.335957,136.973328 
	C52.695606,136.733749 53.055252,136.494171 53.414902,136.254593 
	C52.228535,132.074982 51.042168,127.895370 49.864277,123.745621 
	C57.754734,134.174332 65.570610,144.504486 74.220612,155.937088 
	C67.500961,152.393280 61.209175,149.825760 55.777420,146.028137 
	C48.315781,140.811325 41.504669,134.663864 34.416695,128.912872 
	C32.002007,126.953667 31.528847,124.577499 32.897846,121.803650 
	C35.308193,116.919861 37.712345,112.033005 40.699020,107.213737 
	C42.159027,107.051018 43.312702,107.101631 43.876816,106.549683 
	C49.458927,101.087891 55.022793,95.601303 60.384529,89.925896 
	C61.385727,88.866127 61.580856,86.963219 61.950615,85.402641 
	C63.561905,78.602188 59.566422,73.789833 55.970074,68.848694 
M77.185226,63.004848 
	C79.074455,61.576061 79.074455,61.576061 73.378761,57.484795 
	C71.335609,59.208389 69.342896,60.889442 67.874840,62.127888 
	C69.876038,64.603622 71.705208,66.866524 73.694984,69.328133 
	C74.598289,67.354225 75.546173,65.282890 77.185226,63.004848 
z"/>
<path fill="#4A4846" opacity="1.000000" stroke="none" 
	d="
M97.386780,70.999161 
	C97.022179,55.879189 96.990311,40.859337 96.925415,25.359047 
	C100.763405,26.817541 104.634422,28.756474 108.766777,31.354160 
	C109.019066,33.336288 108.870529,34.676258 109.025612,35.980110 
	C109.629158,41.054169 109.253639,45.428696 102.688362,45.923534 
	C102.633041,45.927704 102.621559,46.513477 102.596420,46.828392 
	C109.322815,49.698425 111.970139,48.194672 112.004028,41.470299 
	C112.018204,38.658134 111.989510,35.845753 111.980316,33.033470 
	C113.862198,34.499161 115.744080,35.964851 117.592484,38.016129 
	C117.379898,41.571339 117.281036,44.548454 117.004425,47.508961 
	C116.482399,53.096088 117.436935,57.997375 122.102974,61.849964 
	C123.278374,62.820457 123.763168,65.030090 123.928482,66.732124 
	C124.216797,69.700409 124.280708,72.745918 123.960625,75.707397 
	C123.024940,84.364632 130.462769,86.920090 135.203354,91.540359 
	C135.228577,89.859009 134.850891,88.142639 133.792847,87.413338 
	C127.311401,82.945702 126.331276,76.637810 126.910309,69.441452 
	C127.125092,66.771973 127.115692,62.830318 125.514679,61.485783 
	C118.552498,55.638920 119.845444,48.202724 120.298065,40.776764 
	C124.458267,45.604927 128.618469,50.433090 132.685318,55.914574 
	C132.385712,62.020996 132.342316,67.486656 131.922821,72.923302 
	C131.573563,77.449745 132.904068,81.094978 136.447678,83.895882 
	C139.295883,86.147141 140.367264,88.997757 140.135651,92.629066 
	C140.030884,94.271736 140.846436,95.973106 141.460175,98.555473 
	C144.968155,93.361389 144.500397,88.635368 141.521393,84.877846 
	C139.109589,81.835762 136.048309,78.677048 135.267517,75.131317 
	C134.263947,70.573891 135.252304,65.577820 135.382584,60.770702 
	C138.093735,65.787949 141.238678,70.624268 143.423004,75.861244 
	C147.582703,85.834152 151.193771,96.035889 154.861084,106.735085 
	C154.162415,107.550903 153.635345,107.774246 152.911926,107.720901 
	C150.557220,105.344940 148.398849,103.245667 146.240479,101.146400 
	C145.737976,101.622826 145.235474,102.099258 144.732956,102.575691 
	C146.837402,105.376198 148.941864,108.176712 150.691315,110.998474 
	C149.499069,111.418259 148.661819,111.816780 147.824585,112.215309 
	C138.517609,100.750534 127.614922,90.956955 116.356613,81.442413 
	C117.427368,80.086395 118.643845,79.245705 118.848442,78.205902 
	C119.418839,75.307060 119.691818,72.330841 119.817368,69.373932 
	C119.859123,68.390160 119.359558,66.907944 118.631653,66.497559 
	C117.868073,66.067062 116.212692,66.290329 115.539772,66.891426 
	C114.883652,67.477493 114.722061,68.918388 114.786926,69.956261 
	C115.020233,73.689201 115.441040,77.410431 115.791000,81.136086 
	C109.767174,77.790482 103.743340,74.444878 97.386780,70.999161 
M104.062881,58.464504 
	C105.627930,63.364567 108.399506,65.293457 111.121475,63.012226 
	C112.537109,61.825806 113.624886,59.487953 113.638199,57.661316 
	C113.646774,56.484135 111.617424,54.646881 110.180992,54.241848 
	C107.391823,53.455376 104.941536,54.430107 104.062881,58.464504 
z"/>
<path fill="#8D2520" opacity="1.000000" stroke="none" 
	d="
M100.996552,112.678162 
	C106.396278,116.868896 111.634850,120.694824 116.428291,125.014694 
	C120.555794,128.734421 122.184952,133.692551 121.788185,139.823929 
	C120.212517,139.228043 119.155968,138.895187 118.155701,138.438980 
	C113.060112,136.114883 109.111534,136.707443 105.880287,141.291580 
	C102.575172,145.980515 99.958290,151.154572 96.783463,156.552719 
	C95.314346,153.516464 93.948036,150.587616 92.492729,147.703659 
	C86.984283,136.787689 84.880241,135.858963 73.276932,139.403824 
	C72.654160,133.815781 74.367996,129.104233 78.341591,125.478447 
	C82.625374,121.569626 87.081985,117.746567 91.927635,114.601707 
	C94.287270,113.070297 97.703979,113.167664 100.996552,112.678162 
M89.877724,124.095711 
	C94.909439,124.075188 99.941147,124.054665 105.044510,124.229546 
	C105.044510,124.229546 105.327415,124.229874 105.327415,124.229874 
	C105.327415,124.229874 105.023537,123.982132 104.753891,123.342178 
	C98.977325,117.252541 94.030083,117.452187 88.785439,124.079994 
	C88.785439,124.079994 88.811737,124.375168 88.811737,124.375168 
	C88.811737,124.375168 89.034248,124.042381 89.877724,124.095711 
z"/>
<path fill="#4B4846" opacity="1.000000" stroke="none" 
	d="
M153.108261,107.997581 
	C153.635345,107.774246 154.162415,107.550903 154.887451,107.110535 
	C157.516006,112.165794 160.061523,117.390442 162.283340,122.749290 
	C162.745377,123.863708 162.516068,125.927208 161.747955,126.789955 
	C149.990143,139.996429 135.968781,149.909073 118.972298,156.161118 
	C127.239822,145.704330 135.152313,135.696609 143.210938,125.504051 
	C142.313721,129.343719 141.396484,133.268997 140.225296,138.281052 
	C146.043701,134.186035 150.353668,130.132477 152.093414,124.261650 
	C152.635529,122.432243 151.175797,119.930321 150.409149,117.817284 
	C149.788895,116.107742 148.833542,114.519775 147.925720,112.546593 
	C148.661819,111.816780 149.499069,111.418259 151.008499,110.904823 
	C152.156540,109.859138 152.632401,108.928360 153.108261,107.997581 
z"/>
<path fill="#3C3A38" opacity="1.000000" stroke="none" 
	d="
M40.977253,104.985580 
	C45.079956,94.447075 49.182659,83.908577 53.894814,73.339409 
	C58.255116,76.820473 59.779484,85.127922 56.747627,88.558327 
	C51.725079,94.241104 46.257401,99.530472 40.977253,104.985580 
z"/>
<path fill="#575655" opacity="1.000000" stroke="none" 
	d="
M87.694382,30.035351 
	C88.001343,39.380703 87.630089,48.866428 88.140709,58.304447 
	C88.468491,64.362907 86.646523,68.766937 82.023117,72.526100 
	C77.786240,75.970993 73.940979,79.894341 69.844215,83.517609 
	C69.086670,84.187599 67.953171,84.432487 66.993187,84.873581 
	C66.601906,84.504105 66.210632,84.134636 65.819351,83.765160 
	C67.107002,82.164993 68.227737,80.386154 69.713562,78.998116 
	C74.192574,74.813858 78.934761,70.904465 83.294746,66.604408 
	C84.396103,65.518188 84.895699,63.379417 84.917557,61.714420 
	C85.039619,52.417770 84.930046,43.118088 84.827087,33.342121 
	C85.632988,31.961706 86.511436,31.058607 87.694382,30.035351 
z"/>
<path fill="#E6DED3" opacity="1.000000" stroke="none" 
	d="
M82.962624,106.770813 
	C85.068924,106.572090 86.859375,106.572090 88.988228,106.572090 
	C85.843658,112.943329 80.752792,115.321396 75.443031,113.443901 
	C69.630806,111.388748 66.882996,105.687729 68.541695,96.767281 
	C72.036934,100.208298 74.733040,103.192932 77.806023,105.719139 
	C78.973358,106.678764 81.007637,106.583817 82.962624,106.770813 
z"/>
<path fill="#EBE2D8" opacity="1.000000" stroke="none" 
	d="
M117.943069,104.979034 
	C120.971161,102.461967 123.896721,100.304062 127.239029,97.838768 
	C128.160553,105.717613 125.173500,111.591270 119.899849,113.688072 
	C114.875092,115.685905 110.160019,113.975769 105.393074,107.615532 
	C108.299706,107.615532 110.474968,107.910301 112.523911,107.528015 
	C114.368118,107.183922 116.073784,106.097305 117.943069,104.979034 
z"/>
<path fill="#626160" opacity="1.000000" stroke="none" 
	d="
M120.191086,40.486328 
	C119.845444,48.202724 118.552498,55.638920 125.514679,61.485783 
	C127.115692,62.830318 127.125092,66.771973 126.910309,69.441452 
	C126.331276,76.637810 127.311401,82.945702 133.792847,87.413338 
	C134.850891,88.142639 135.228577,89.859009 135.203354,91.540359 
	C130.462769,86.920090 123.024940,84.364632 123.960625,75.707397 
	C124.280708,72.745918 124.216797,69.700409 123.928482,66.732124 
	C123.763168,65.030090 123.278374,62.820457 122.102974,61.849964 
	C117.436935,57.997375 116.482399,53.096088 117.004425,47.508961 
	C117.281036,44.548454 117.379898,41.571339 117.807007,38.259682 
	C118.731377,38.677067 119.407738,39.436481 120.191086,40.486328 
z"/>
<path fill="#545352" opacity="1.000000" stroke="none" 
	d="
M40.942139,105.304947 
	C46.257401,99.530472 51.725079,94.241104 56.747627,88.558327 
	C59.779484,85.127922 58.255116,76.820473 54.171837,73.138397 
	C54.324566,71.681595 54.809708,70.395157 55.632462,68.978699 
	C59.566422,73.789833 63.561905,78.602188 61.950615,85.402641 
	C61.580856,86.963219 61.385727,88.866127 60.384529,89.925896 
	C55.022793,95.601303 49.458927,101.087891 43.876816,106.549683 
	C43.312702,107.101631 42.159027,107.051018 41.016037,107.089714 
	C40.804424,106.474365 40.855724,106.049332 40.942139,105.304947 
z"/>
<path fill="#646261" opacity="1.000000" stroke="none" 
	d="
M135.328308,60.429253 
	C135.252304,65.577820 134.263947,70.573891 135.267517,75.131317 
	C136.048309,78.677048 139.109589,81.835762 141.521393,84.877846 
	C144.500397,88.635368 144.968155,93.361389 141.460175,98.555473 
	C140.846436,95.973106 140.030884,94.271736 140.135651,92.629066 
	C140.367264,88.997757 139.295883,86.147141 136.447678,83.895882 
	C132.904068,81.094978 131.573563,77.449745 131.922821,72.923302 
	C132.342316,67.486656 132.385712,62.020996 132.836700,56.216007 
	C133.812302,57.272011 134.543182,58.679905 135.328308,60.429253 
z"/>
<path fill="#5E5D5C" opacity="1.000000" stroke="none" 
	d="
M111.750938,32.847599 
	C111.989510,35.845753 112.018204,38.658134 112.004028,41.470299 
	C111.970139,48.194672 109.322815,49.698425 102.596420,46.828392 
	C102.621559,46.513477 102.633041,45.927704 102.688362,45.923534 
	C109.253639,45.428696 109.629158,41.054169 109.025612,35.980110 
	C108.870529,34.676258 109.019066,33.336288 109.043678,31.558220 
	C109.880013,31.622927 110.700783,32.142326 111.750938,32.847599 
z"/>
<path fill="#555453" opacity="1.000000" stroke="none" 
	d="
M78.708473,36.959747 
	C78.997200,37.460938 79.014771,38.115841 79.005981,38.770393 
	C78.831329,51.774868 80.770096,49.853687 67.437912,49.987076 
	C67.783890,48.758995 68.594475,47.520344 70.033249,46.281281 
	C76.080582,47.319756 76.191483,47.181763 75.811104,39.872971 
	C76.682419,38.953079 77.553726,38.033192 78.708473,36.959747 
z"/>
<path fill="#3C3A38" opacity="1.000000" stroke="none" 
	d="
M75.498581,39.977684 
	C76.191483,47.181763 76.080582,47.319756 70.310425,46.107014 
	C71.701622,43.982903 73.443832,42.032650 75.498581,39.977684 
z"/>
<path fill="#78241F" opacity="1.000000" stroke="none" 
	d="
M83.341995,144.747467 
	C82.513649,143.770142 81.919456,143.029495 81.325256,142.288849 
	C81.739143,141.891006 82.153038,141.493179 82.566925,141.095352 
	C84.871941,143.355927 87.176956,145.616501 89.481979,147.877090 
	C89.016579,148.390060 88.551170,148.903046 88.085770,149.416031 
	C86.582565,147.938736 85.079353,146.461441 83.341995,144.747467 
z"/>
<path fill="#545352" opacity="1.000000" stroke="none" 
	d="
M76.839645,63.108204 
	C75.546173,65.282890 74.598289,67.354225 73.694984,69.328133 
	C71.705208,66.866524 69.876038,64.603622 67.874840,62.127888 
	C69.342896,60.889442 71.335609,59.208389 73.378761,57.484795 
	C79.074455,61.576061 79.074455,61.576061 76.839645,63.108204 
z"/>
<path fill="#5D5C5B" opacity="1.000000" stroke="none" 
	d="
M104.092056,58.076298 
	C104.941536,54.430107 107.391823,53.455376 110.180992,54.241848 
	C111.617424,54.646881 113.646774,56.484135 113.638199,57.661316 
	C113.624886,59.487953 112.537109,61.825806 111.121475,63.012226 
	C108.399506,65.293457 105.627930,63.364567 104.092056,58.076298 
z"/>
<path fill="#615F5E" opacity="1.000000" stroke="none" 
	d="
M115.833626,81.134247 
	C115.441040,77.410431 115.020233,73.689201 114.786926,69.956261 
	C114.722061,68.918388 114.883652,67.477493 115.539772,66.891426 
	C116.212692,66.290329 117.868073,66.067062 118.631653,66.497559 
	C119.359558,66.907944 119.859123,68.390160 119.817368,69.373932 
	C119.691818,72.330841 119.418839,75.307060 118.848442,78.205902 
	C118.643845,79.245705 117.427368,80.086395 116.269585,81.117569 
	C115.866455,81.217171 115.876259,81.132401 115.833626,81.134247 
z"/>
<path fill="#62615F" opacity="1.000000" stroke="none" 
	d="
M152.911926,107.720901 
	C152.632401,108.928360 152.156540,109.859138 151.363495,110.883568 
	C148.941864,108.176712 146.837402,105.376198 144.732956,102.575691 
	C145.235474,102.099258 145.737976,101.622826 146.240479,101.146400 
	C148.398849,103.245667 150.557220,105.344940 152.911926,107.720901 
z"/>
<path fill="#36211A" opacity="1.000000" stroke="none" 
	d="
M104.972862,124.034149 
	C99.941147,124.054665 94.909439,124.075188 89.441544,124.052063 
	C89.005363,124.008423 88.972244,123.979050 88.972244,123.979050 
	C94.030083,117.452187 98.977325,117.252541 104.875061,123.673943 
	C104.996239,124.005707 104.972862,124.034149 104.972862,124.034149 
z"/>
<path fill="#36211A" opacity="1.000000" stroke="none" 
	d="
M89.019806,124.025406 
	C89.034248,124.042381 88.811737,124.375168 88.811737,124.375168 
	C88.811737,124.375168 88.785439,124.079994 88.878845,124.029526 
	C88.972244,123.979050 89.005363,124.008423 89.019806,124.025406 
z"/>
<path fill="#36211A" opacity="1.000000" stroke="none" 
	d="
M105.009888,123.993919 
	C105.023537,123.982132 105.327415,124.229874 105.327415,124.229874 
	C105.327415,124.229874 105.044510,124.229546 105.008682,124.131851 
	C104.972862,124.034149 104.996239,124.005707 105.009888,123.993919 
z"/>
</svg>